<svg width="134" height="56" viewBox="0 0 134 56" fill="none" xmlns="http://www.w3.org/2000/svg">
<path d="M11.2 37.6334V29.1734L8.14 35.3334H6.34L3.28 29.1734V37.6334H0V23.4334H3.56L7.24 30.8534L10.94 23.4334H14.48V37.6334H11.2Z" fill="white"/>
<path d="M21.7712 37.8334C20.5712 37.8334 19.5512 37.58 18.7112 37.0734C17.8846 36.5667 17.2513 35.9 16.8113 35.0734C16.3713 34.2467 16.1513 33.3534 16.1513 32.3934C16.1513 31.42 16.3713 30.52 16.8113 29.6934C17.2513 28.8667 17.8912 28.2 18.7312 27.6934C19.5712 27.1867 20.5846 26.9334 21.7712 26.9334C22.9579 26.9334 23.9713 27.1867 24.8112 27.6934C25.6513 28.2 26.2913 28.8667 26.7313 29.6934C27.1713 30.52 27.3913 31.42 27.3913 32.3934C27.3913 33.3534 27.1713 34.2467 26.7313 35.0734C26.2913 35.9 25.6513 36.5667 24.8112 37.0734C23.9713 37.58 22.9579 37.8334 21.7712 37.8334ZM19.4313 32.3934C19.4313 33.2067 19.6513 33.8667 20.0913 34.3734C20.5446 34.88 21.1046 35.1334 21.7712 35.1334C22.4246 35.1334 22.9712 34.88 23.4112 34.3734C23.8646 33.8667 24.0913 33.2067 24.0913 32.3934C24.0913 31.58 23.8646 30.92 23.4112 30.4134C22.9712 29.9067 22.4246 29.6534 21.7712 29.6534C21.1046 29.6534 20.5446 29.9067 20.0913 30.4134C19.6513 30.92 19.4313 31.58 19.4313 32.3934Z" fill="white"/>
<path d="M35.2583 37.7334C34.325 37.7334 33.4449 37.56 32.6183 37.2134C31.8049 36.8534 31.0783 36.3534 30.4383 35.7134C29.8116 35.06 29.3183 34.2934 28.9583 33.4134C28.6116 32.52 28.4383 31.5267 28.4383 30.4334C28.4383 29.4467 28.6116 28.5267 28.9583 27.6734C29.3183 26.82 29.8183 26.0667 30.4583 25.4134C31.1116 24.76 31.8649 24.2534 32.7183 23.8934C33.5849 23.52 34.5183 23.3334 35.5183 23.3334C36.8249 23.3334 37.9716 23.6134 38.9583 24.1734C39.9583 24.7334 40.7049 25.4867 41.1983 26.4334L38.7583 28.2734C38.4383 27.6467 37.9716 27.1534 37.3583 26.7934C36.745 26.4334 36.0916 26.2534 35.3983 26.2534C34.6783 26.2534 34.0449 26.4467 33.4983 26.8334C32.9516 27.2067 32.5249 27.72 32.2183 28.3734C31.9116 29.0267 31.7583 29.7534 31.7583 30.5534C31.7583 31.3667 31.9183 32.1 32.2383 32.7534C32.5583 33.3934 32.9983 33.9 33.5583 34.2734C34.1316 34.6334 34.7916 34.8134 35.5383 34.8134C36.8183 34.8134 37.9716 34.2267 38.9983 33.0534V32.5934H36.2383V30.2134H41.7183V37.6334H38.9983V36.2334C37.9183 37.2334 36.6716 37.7334 35.2583 37.7334Z" fill="white"/>
<path d="M48.6267 37.8334C47.4267 37.8334 46.4067 37.58 45.5667 37.0734C44.7401 36.5667 44.1067 35.9 43.6667 35.0734C43.2267 34.2467 43.0067 33.3534 43.0067 32.3934C43.0067 31.42 43.2267 30.52 43.6667 29.6934C44.1067 28.8667 44.7467 28.2 45.5867 27.6934C46.4267 27.1867 47.4401 26.9334 48.6267 26.9334C49.8134 26.9334 50.8267 27.1867 51.6667 27.6934C52.5067 28.2 53.1467 28.8667 53.5867 29.6934C54.0267 30.52 54.2467 31.42 54.2467 32.3934C54.2467 33.3534 54.0267 34.2467 53.5867 35.0734C53.1467 35.9 52.5067 36.5667 51.6667 37.0734C50.8267 37.58 49.8134 37.8334 48.6267 37.8334ZM46.2867 32.3934C46.2867 33.2067 46.5067 33.8667 46.9467 34.3734C47.4001 34.88 47.9601 35.1334 48.6267 35.1334C49.2801 35.1334 49.8267 34.88 50.2667 34.3734C50.7201 33.8667 50.9467 33.2067 50.9467 32.3934C50.9467 31.58 50.7201 30.92 50.2667 30.4134C49.8267 29.9067 49.2801 29.6534 48.6267 29.6534C47.9601 29.6534 47.4001 29.9067 46.9467 30.4134C46.5067 30.92 46.2867 31.58 46.2867 32.3934Z" fill="white"/>
</svg>
