<svg width="184" height="68" viewBox="0 0 184 68" fill="none" xmlns="http://www.w3.org/2000/svg">
<path d="M13.6714 45.9376V35.6108L9.93619 43.1301H7.739L4.00377 35.6108V45.9376H0V28.6042H4.34556L8.8376 37.6615L13.354 28.6042H17.6752V45.9376H13.6714Z" fill="white"/>
<path d="M26.5753 46.1817C25.1105 46.1817 23.8655 45.8725 22.8401 45.254C21.831 44.6355 21.058 43.8218 20.5209 42.8127C19.9838 41.8036 19.7152 40.7132 19.7152 39.5413C19.7152 38.3532 19.9838 37.2546 20.5209 36.2455C21.058 35.2364 21.8392 34.4227 22.8645 33.8042C23.8899 33.1857 25.1268 32.8765 26.5753 32.8765C28.0239 32.8765 29.2608 33.1857 30.2862 33.8042C31.3115 34.4227 32.0927 35.2364 32.6298 36.2455C33.1669 37.2546 33.4355 38.3532 33.4355 39.5413C33.4355 40.7132 33.1669 41.8036 32.6298 42.8127C32.0927 43.8218 31.3115 44.6355 30.2862 45.254C29.2608 45.8725 28.0239 46.1817 26.5753 46.1817ZM23.719 39.5413C23.719 40.5341 23.9875 41.3398 24.5246 41.9582C25.078 42.5767 25.7616 42.8859 26.5753 42.8859C27.3728 42.8859 28.0401 42.5767 28.5772 41.9582C29.1306 41.3398 29.4073 40.5341 29.4073 39.5413C29.4073 38.5485 29.1306 37.7429 28.5772 37.1244C28.0401 36.5059 27.3728 36.1967 26.5753 36.1967C25.7616 36.1967 25.078 36.5059 24.5246 37.1244C23.9875 37.7429 23.719 38.5485 23.719 39.5413Z" fill="white"/>
<path d="M43.0385 46.0597C41.8992 46.0597 40.825 45.8481 39.8159 45.4249C38.8231 44.9855 37.9361 44.3751 37.1549 43.5939C36.3899 42.7964 35.7877 41.8606 35.3483 40.7864C34.9251 39.6959 34.7135 38.4834 34.7135 37.1488C34.7135 35.9444 34.9251 34.8214 35.3483 33.7798C35.7877 32.7382 36.3981 31.8186 37.1793 31.0211C37.9768 30.2236 38.8963 29.6051 39.938 29.1657C40.9959 28.71 42.1352 28.4821 43.3558 28.4821C44.9508 28.4821 46.3505 28.8239 47.5549 29.5075C48.7756 30.191 49.687 31.1106 50.2892 32.2662L47.3108 34.5122C46.9202 33.7472 46.3505 33.145 45.6018 32.7056C44.8532 32.2662 44.0557 32.0465 43.2093 32.0465C42.3305 32.0465 41.5574 32.2824 40.8901 32.7544C40.2228 33.2101 39.702 33.8368 39.3276 34.6343C38.9533 35.4318 38.7661 36.3188 38.7661 37.2953C38.7661 38.2881 38.9614 39.1833 39.3521 39.9808C39.7427 40.762 40.2798 41.3804 40.9633 41.8362C41.6632 42.2756 42.4688 42.4953 43.3802 42.4953C44.9427 42.4953 46.3505 41.7792 47.6037 40.347V39.7855H44.2347V36.8803H50.9239V45.9376H47.6037V44.2287C46.2854 45.4493 44.7637 46.0597 43.0385 46.0597Z" fill="white"/>
<path d="M59.3568 46.1817C57.892 46.1817 56.6469 45.8725 55.6216 45.254C54.6125 44.6355 53.8394 43.8218 53.3023 42.8127C52.7652 41.8036 52.4967 40.7132 52.4967 39.5413C52.4967 38.3532 52.7652 37.2546 53.3023 36.2455C53.8394 35.2364 54.6206 34.4227 55.646 33.8042C56.6713 33.1857 57.9083 32.8765 59.3568 32.8765C60.8053 32.8765 62.0423 33.1857 63.0676 33.8042C64.093 34.4227 64.8742 35.2364 65.4113 36.2455C65.9484 37.2546 66.2169 38.3532 66.2169 39.5413C66.2169 40.7132 65.9484 41.8036 65.4113 42.8127C64.8742 43.8218 64.093 44.6355 63.0676 45.254C62.0423 45.8725 60.8053 46.1817 59.3568 46.1817ZM56.5005 39.5413C56.5005 40.5341 56.769 41.3398 57.3061 41.9582C57.8595 42.5767 58.543 42.8859 59.3568 42.8859C60.1543 42.8859 60.8216 42.5767 61.3587 41.9582C61.9121 41.3398 62.1887 40.5341 62.1887 39.5413C62.1887 38.5485 61.9121 37.7429 61.3587 37.1244C60.8216 36.5059 60.1543 36.1967 59.3568 36.1967C58.543 36.1967 57.8595 36.5059 57.3061 37.1244C56.769 37.7429 56.5005 38.5485 56.5005 39.5413Z" fill="white"/>
</svg>
