<svg width="70" height="70" viewBox="0 0 70 70" fill="none" xmlns="http://www.w3.org/2000/svg">
<path d="M11.6667 59.7917C11.3649 59.7903 11.0704 59.6989 10.8209 59.5292C10.6069 59.4092 10.4275 59.2362 10.2998 59.0267C10.1721 58.8173 10.1004 58.5785 10.0917 58.3334V17.5C10.0896 17.2038 10.1778 16.9139 10.3446 16.669C10.5113 16.4241 10.7486 16.2358 11.025 16.1292L25.9292 10.2959C26.2693 10.1781 26.6391 10.1781 26.9792 10.2959L41.125 15.8375L58.0125 10.2959C58.2302 10.213 58.4657 10.1883 58.6958 10.2241C58.926 10.2599 59.1428 10.355 59.325 10.5C59.5097 10.6325 59.6592 10.808 59.7609 11.0113C59.8625 11.2145 59.9131 11.4395 59.9084 11.6667V52.5C59.9106 52.8043 59.8156 53.1014 59.6372 53.348C59.4588 53.5945 59.2064 53.7777 58.9167 53.8709L41.4167 59.7042C41.0963 59.82 40.7454 59.82 40.425 59.7042L26.425 54.1917L12.075 59.7042C11.9432 59.7504 11.806 59.7798 11.6667 59.7917ZM26.5417 51.0417C26.7239 50.9983 26.9137 50.9983 27.0959 51.0417L40.8334 56.7875L56.9625 51.3334V13.6792L41.5042 18.7542C41.1838 18.87 40.833 18.87 40.5125 18.7542L26.425 13.2417L13.0084 18.375V56.2917L25.9292 51.3625C26.0718 51.2489 26.2438 51.1781 26.425 51.1584L26.5417 51.0417Z" fill="#95E1D3"/>
<path d="M26.425 54.0749C26.0382 54.0749 25.6673 53.9213 25.3938 53.6478C25.1203 53.3743 24.9667 53.0034 24.9667 52.6166V11.6666C24.9667 11.2798 25.1203 10.9089 25.3938 10.6354C25.6673 10.3619 26.0382 10.2083 26.425 10.2083C26.8118 10.2083 27.1827 10.3619 27.4562 10.6354C27.7297 10.9089 27.8833 11.2798 27.8833 11.6666V52.4999C27.8995 52.701 27.8737 52.9033 27.8077 53.0939C27.7417 53.2845 27.6368 53.4594 27.4998 53.6074C27.3627 53.7554 27.1964 53.8734 27.0114 53.9539C26.8264 54.0343 26.6267 54.0756 26.425 54.0749Z" fill="#95E1D3"/>
<path d="M41.0959 59.7917C40.7091 59.7917 40.3382 59.6381 40.0647 59.3646C39.7912 59.0911 39.6376 58.7202 39.6376 58.3334V17.5001C39.6376 17.1133 39.7912 16.7424 40.0647 16.4689C40.3382 16.1954 40.7091 16.0417 41.0959 16.0417C41.4827 16.0417 41.8536 16.1954 42.1271 16.4689C42.4006 16.7424 42.5542 17.1133 42.5542 17.5001V58.3334C42.5542 58.7202 42.4006 59.0911 42.1271 59.3646C41.8536 59.6381 41.4827 59.7917 41.0959 59.7917Z" fill="#95E1D3"/>
</svg>
