<svg width="70" height="70" viewBox="0 0 70 70" fill="none" xmlns="http://www.w3.org/2000/svg">
<path d="M26.6876 32.0832H12.1042C10.8097 32.0832 9.56777 31.571 8.64967 30.6583C7.73158 29.7457 7.21193 28.5068 7.20422 27.2123V12.629C7.21188 11.3318 7.73058 10.0899 8.64786 9.17264C9.56513 8.25536 10.807 7.73666 12.1042 7.729H26.6876C27.9848 7.73666 29.2266 8.25536 30.1439 9.17264C31.0612 10.0899 31.5799 11.3318 31.5876 12.629V27.2123C31.5799 28.5068 31.0602 29.7457 30.1421 30.6583C29.224 31.571 27.9821 32.0832 26.6876 32.0832ZM12.1042 10.6165C11.5806 10.624 11.0805 10.8354 10.7101 11.2057C10.3398 11.5761 10.1284 12.0762 10.1209 12.5998V27.1832C10.1209 27.7092 10.3298 28.2137 10.7018 28.5856C11.0737 28.9575 11.5782 29.1665 12.1042 29.1665H26.6876C27.2136 29.1665 27.718 28.9575 28.09 28.5856C28.4619 28.2137 28.6709 27.7092 28.6709 27.1832V12.5998C28.6634 12.0762 28.452 11.5761 28.0817 11.2057C27.7113 10.8354 27.2112 10.624 26.6876 10.6165H12.1042Z" fill="#95E1D3"/>
<path d="M57.8959 32.0833H43.3126C42.013 32.0833 40.7667 31.567 39.8478 30.6481C38.9288 29.7292 38.4126 28.4828 38.4126 27.1833V12.6C38.4203 11.3028 38.939 10.0609 39.8562 9.14358C40.7735 8.22631 42.0154 7.7076 43.3126 7.69995H57.8959C59.1931 7.7076 60.435 8.22631 61.3523 9.14358C62.2696 10.0609 62.7883 11.3028 62.7959 12.6V27.1833C62.7959 28.4828 62.2797 29.7292 61.3608 30.6481C60.4418 31.567 59.1955 32.0833 57.8959 32.0833ZM43.3126 10.6166C42.7889 10.6242 42.2888 10.8355 41.9185 11.2059C41.5482 11.5762 41.3368 12.0763 41.3293 12.6V27.1833C41.3293 27.7093 41.5382 28.2138 41.9102 28.5857C42.2821 28.9577 42.7866 29.1666 43.3126 29.1666H57.8959C58.4219 29.1666 58.9264 28.9577 59.2984 28.5857C59.6703 28.2138 59.8793 27.7093 59.8793 27.1833V12.6C59.8717 12.0763 59.6603 11.5762 59.29 11.2059C58.9197 10.8355 58.4196 10.6242 57.8959 10.6166H43.3126Z" fill="#95E1D3"/>
<path d="M26.6876 62.2707H12.1042C10.807 62.263 9.56513 61.7443 8.64786 60.827C7.73058 59.9098 7.21188 58.6679 7.20422 57.3707V42.7873C7.21193 41.4928 7.73158 40.254 8.64967 39.3414C9.56777 38.4287 10.8097 37.9165 12.1042 37.9165H26.6876C27.9871 37.9165 29.2335 38.4328 30.1524 39.3517C31.0713 40.2706 31.5876 41.5169 31.5876 42.8165V57.3998C31.5723 58.692 31.0502 59.9264 30.1338 60.8374C29.2173 61.7484 27.9797 62.2631 26.6876 62.2707ZM12.1042 40.8332C11.5782 40.8332 11.0737 41.0421 10.7018 41.4141C10.3298 41.786 10.1209 42.2905 10.1209 42.8165V57.3998C10.1284 57.9235 10.3398 58.4236 10.7101 58.7939C11.0805 59.1643 11.5806 59.3756 12.1042 59.3832H26.6876C27.2112 59.3756 27.7113 59.1643 28.0817 58.7939C28.452 58.4236 28.6634 57.9235 28.6709 57.3998V42.8165C28.6709 42.2905 28.4619 41.786 28.09 41.4141C27.718 41.0421 27.2136 40.8332 26.6876 40.8332H12.1042Z" fill="#95E1D3"/>
<path d="M57.8959 62.2707H43.3126C42.0154 62.263 40.7735 61.7443 39.8562 60.827C38.939 59.9098 38.4203 58.6679 38.4126 57.3707V42.7873C38.4203 41.4928 38.94 40.254 39.858 39.3414C40.7761 38.4287 42.0181 37.9165 43.3126 37.9165H57.8959C59.1955 37.9165 60.4418 38.4328 61.3608 39.3517C62.2797 40.2706 62.7959 41.5169 62.7959 42.8165V57.3998C62.7807 58.692 62.2586 59.9264 61.3421 60.8374C60.4257 61.7484 59.1881 62.2631 57.8959 62.2707ZM43.3126 40.804C42.7866 40.804 42.2821 41.013 41.9102 41.3849C41.5382 41.7569 41.3293 42.2613 41.3293 42.7873V57.3707C41.3368 57.8943 41.5482 58.3944 41.9185 58.7648C42.2888 59.1351 42.7889 59.3465 43.3126 59.354H57.8959C58.4196 59.3465 58.9197 59.1351 59.29 58.7648C59.6603 58.3944 59.8717 57.8943 59.8793 57.3707V42.7873C59.8793 42.2613 59.6703 41.7569 59.2984 41.3849C58.9264 41.013 58.4219 40.804 57.8959 40.804H43.3126Z" fill="#95E1D3"/>
</svg>
