<svg width="24" height="24" viewBox="0 0 24 24" fill="none" xmlns="http://www.w3.org/2000/svg">
<path d="M10.67 15.0967C10.164 17.8227 9.54802 20.4367 7.72002 21.8017C7.15702 17.6817 8.54902 14.5867 9.19502 11.3017C8.09302 9.3917 9.32802 5.5467 11.652 6.4937C14.512 7.6597 9.17502 13.5957 12.758 14.3377C16.499 15.1117 18.027 7.6547 15.707 5.2287C12.355 1.7277 5.95002 5.1497 6.73802 10.1627C6.93002 11.3887 8.15902 11.7607 7.22902 13.4527C5.08402 12.9617 4.44402 11.2197 4.52702 8.8967C4.65902 5.0967 7.84402 2.4347 11.038 2.0667C15.078 1.6007 18.869 3.5937 19.392 7.5067C19.982 11.9227 17.569 16.7067 13.25 16.3617C12.079 16.2687 11.587 15.6717 10.67 15.0967Z" fill="#95E1D3"/>
</svg>
