<svg width="24" height="24" viewBox="0 0 24 24" fill="none" xmlns="http://www.w3.org/2000/svg">
<path d="M10.67 15.0969C10.164 17.8229 9.548 20.4369 7.72 21.8019C7.157 17.6819 8.549 14.5869 9.195 11.3019C8.093 9.39194 9.328 5.54694 11.652 6.49394C14.512 7.65994 9.175 13.5959 12.758 14.3379C16.499 15.1119 18.027 7.65494 15.707 5.22894C12.355 1.72794 5.95 5.14994 6.738 10.1629C6.93 11.3889 8.159 11.7609 7.229 13.4529C5.084 12.9619 4.444 11.2199 4.527 8.89694C4.659 5.09694 7.844 2.43494 11.038 2.06694C15.078 1.60094 18.869 3.59394 19.392 7.50694C19.982 11.9229 17.569 16.7069 13.25 16.3619C12.079 16.2689 11.587 15.6719 10.67 15.0969Z" fill="#414042"/>
</svg>
