<svg width="40" height="40" viewBox="0 0 40 40" fill="none" xmlns="http://www.w3.org/2000/svg">
<path d="M20.4167 20.0001C18.6037 20.0001 16.8314 19.4625 15.3239 18.4552C13.8165 17.448 12.6416 16.0163 11.9478 14.3414C11.254 12.6664 11.0724 10.8232 11.4261 9.04509C11.7798 7.26693 12.6529 5.63359 13.9349 4.35161C15.2168 3.06963 16.8502 2.19658 18.6283 1.84289C20.4065 1.48919 22.2496 1.67072 23.9246 2.36452C25.5996 3.05833 27.0312 4.23324 28.0385 5.74069C29.0457 7.24814 29.5833 9.02042 29.5833 10.8334C29.5789 13.2632 28.6117 15.5922 26.8936 17.3104C25.1755 19.0285 22.8465 19.9957 20.4167 20.0001ZM20.4167 3.33342C18.9333 3.33342 17.4833 3.77329 16.2499 4.5974C15.0165 5.42151 14.0552 6.59285 13.4876 7.96329C12.9199 9.33374 12.7714 10.8417 13.0608 12.2966C13.3502 13.7515 14.0645 15.0878 15.1134 16.1367C16.1623 17.1856 17.4986 17.8999 18.9535 18.1893C20.4083 18.4787 21.9164 18.3302 23.2868 17.7625C24.6572 17.1949 25.8286 16.2336 26.6527 15.0002C27.4768 13.7668 27.9167 12.3168 27.9167 10.8334C27.9123 8.84565 27.1207 6.94055 25.7151 5.53498C24.3095 4.12941 22.4044 3.33782 20.4167 3.33342Z" fill="white"/>
<path d="M5.41671 33.3335C5.19569 33.3335 4.98373 33.2457 4.82745 33.0894C4.67117 32.9331 4.58337 32.7212 4.58337 32.5002C4.58778 28.7443 6.08176 25.1435 8.73757 22.4877C11.3934 19.8319 14.9942 18.3379 18.75 18.3335H22.0834C22.3044 18.3335 22.5163 18.4213 22.6726 18.5776C22.8289 18.7339 22.9167 18.9458 22.9167 19.1668C22.9167 19.3878 22.8289 19.5998 22.6726 19.7561C22.5163 19.9124 22.3044 20.0002 22.0834 20.0002H18.75C15.4348 20.0002 12.2554 21.3171 9.91121 23.6613C7.567 26.0055 6.25004 29.185 6.25004 32.5002C6.25004 32.7212 6.16224 32.9331 6.00596 33.0894C5.84968 33.2457 5.63772 33.3335 5.41671 33.3335Z" fill="white"/>
<path d="M27.9167 38.3335C27.6957 38.3335 27.4837 38.2457 27.3275 38.0894C27.1712 37.9331 27.0834 37.7212 27.0834 37.5002V24.1668C27.0834 23.9458 27.1712 23.7339 27.3275 23.5776C27.4837 23.4213 27.6957 23.3335 27.9167 23.3335C28.1377 23.3335 28.3497 23.4213 28.506 23.5776C28.6622 23.7339 28.75 23.9458 28.75 24.1668V37.5002C28.75 37.7212 28.6622 37.9331 28.506 38.0894C28.3497 38.2457 28.1377 38.3335 27.9167 38.3335Z" fill="white"/>
<path d="M34.5834 31.6667H21.2501C21.0291 31.6667 20.8171 31.5789 20.6608 31.4226C20.5045 31.2663 20.4167 31.0543 20.4167 30.8333C20.4167 30.6123 20.5045 30.4004 20.6608 30.2441C20.8171 30.0878 21.0291 30 21.2501 30H34.5834C34.8044 30 35.0164 30.0878 35.1727 30.2441C35.329 30.4004 35.4167 30.6123 35.4167 30.8333C35.4167 31.0543 35.329 31.2663 35.1727 31.4226C35.0164 31.5789 34.8044 31.6667 34.5834 31.6667Z" fill="white"/>
</svg>
