<svg width="128" height="128" viewBox="0 0 128 128" fill="none" xmlns="http://www.w3.org/2000/svg">
<path opacity="0.95" d="M40.7 87.11V98.76L50.7799 92.93V81.29L40.7 87.11Z" fill="#414042"/>
<path opacity="0.5" d="M39.08 87.11V98.76L29 92.93V81.29L39.08 87.11Z" fill="#414042"/>
<path opacity="0.3" d="M40.7 74.5298V85.2398L49.9799 79.8798L40.7 74.5298Z" fill="#414042"/>
<path opacity="0.75" d="M39.0801 74.5298L29.8 79.8798L39.0801 85.2398V74.5298Z" fill="#414042"/>
<path opacity="0.95" d="M39.08 71.67V60.02L29 65.85V77.49L39.08 71.67Z" fill="#414042"/>
<path opacity="0.95" d="M40.7 44.5798V56.2298L50.7799 50.3998V38.7598L40.7 44.5798Z" fill="#414042"/>
<path opacity="0.5" d="M39.08 44.5798V56.2298L29 50.3998V38.7598L39.08 44.5798Z" fill="#414042"/>
<path opacity="0.3" d="M40.7 32V42.71L49.9799 37.35L40.7 32Z" fill="#414042"/>
<path opacity="0.75" d="M39.0801 32L29.8 37.35L39.0801 42.71V32Z" fill="#414042"/>
<path opacity="0.75" d="M29.8 52.7202V63.4402L39.0801 58.0802L29.8 52.7202Z" fill="#414042"/>
<path opacity="0.15" d="M49.9799 52.7202L40.7 58.0802L49.9799 63.4402V52.7202Z" fill="#414042"/>
<path opacity="0.5" d="M40.7 71.67V60.02L50.7799 65.85V77.49L40.7 71.67Z" fill="#414042"/>
<path opacity="0.95" d="M64.2 87.11V98.76L74.28 92.93V81.29L64.2 87.11Z" fill="#414042"/>
<path opacity="0.5" d="M62.58 87.11V98.76L52.5 92.93V81.29L62.58 87.11Z" fill="#414042"/>
<path opacity="0.3" d="M64.2 74.5298V85.2398L73.48 79.8798L64.2 74.5298Z" fill="#414042"/>
<path opacity="0.75" d="M62.5801 74.5298L53.3 79.8798L62.5801 85.2398V74.5298Z" fill="#414042"/>
<path opacity="0.95" d="M62.58 71.67V60.02L52.5 65.85V77.49L62.58 71.67Z" fill="#414042"/>
<path opacity="0.95" d="M64.2 44.5798V56.2298L74.28 50.3998V38.7598L64.2 44.5798Z" fill="#414042"/>
<path opacity="0.5" d="M62.58 44.5798V56.2298L52.5 50.3998V38.7598L62.58 44.5798Z" fill="#414042"/>
<path opacity="0.3" d="M64.2 32V42.71L73.48 37.35L64.2 32Z" fill="#414042"/>
<path opacity="0.75" d="M62.5801 32L53.3 37.35L62.5801 42.71V32Z" fill="#414042"/>
<path opacity="0.75" d="M53.3 52.7202V63.4402L62.5801 58.0802L53.3 52.7202Z" fill="#414042"/>
<path opacity="0.15" d="M73.48 52.7202L64.2 58.0802L73.48 63.4402V52.7202Z" fill="#414042"/>
<path opacity="0.5" d="M64.2 71.67V60.02L74.28 65.85V77.49L64.2 71.67Z" fill="#414042"/>
<path opacity="0.95" d="M87.3599 87.11V98.76L97.4498 92.93V81.29L87.3599 87.11Z" fill="#414042"/>
<path opacity="0.5" d="M85.7499 87.11V98.76L75.6599 92.93V81.29L85.7499 87.11Z" fill="#414042"/>
<path opacity="0.3" d="M87.3599 74.5298V85.2398L96.6398 79.8798L87.3599 74.5298Z" fill="#414042"/>
<path opacity="0.75" d="M85.75 74.5298L76.47 79.8798L85.75 85.2398V74.5298Z" fill="#414042"/>
<path opacity="0.95" d="M85.7499 71.67V60.02L75.6599 65.85V77.49L85.7499 71.67Z" fill="#414042"/>
<path opacity="0.95" d="M87.3599 44.5798V56.2298L97.4498 50.3998V38.7598L87.3599 44.5798Z" fill="#414042"/>
<path opacity="0.5" d="M85.7499 44.5798V56.2298L75.6599 50.3998V38.7598L85.7499 44.5798Z" fill="#414042"/>
<path opacity="0.3" d="M87.3599 32V42.71L96.6398 37.35L87.3599 32Z" fill="#414042"/>
<path opacity="0.75" d="M85.75 32L76.47 37.35L85.75 42.71V32Z" fill="#414042"/>
<path opacity="0.75" d="M76.47 52.7202V63.4402L85.75 58.0802L76.47 52.7202Z" fill="#414042"/>
<path opacity="0.15" d="M96.6398 52.7202L87.3599 58.0802L96.6398 63.4402V52.7202Z" fill="#414042"/>
<path opacity="0.5" d="M87.3599 71.67V60.02L97.4498 65.85V77.49L87.3599 71.67Z" fill="#414042"/>
</svg>
